<?xml version="1.0" encoding="utf-8"?>
<!-- Generator: Adobe Illustrator 27.0.0, SVG Export Plug-In . SVG Version: 6.00 Build 0)  -->
<svg version="1.1" id="Layer_1" xmlns:sketch="http://www.bohemiancoding.com/sketch/ns"
	 xmlns="http://www.w3.org/2000/svg" xmlns:xlink="http://www.w3.org/1999/xlink" x="0px" y="0px" viewBox="0 0 17.6 18.4"
	 style="enable-background:new 0 0 17.6 18.4;" xml:space="preserve">
<style type="text/css">
	.st0{fill:#0C0C0C;}
</style>
<g>
	<path class="st0" d="M13.5,9.8c0-1.5,0.6-2.7,1.9-3.5c-0.7-1.1-1.8-1.7-3.3-1.8c-0.5,0-1.2,0.1-2,0.4C9.3,5.2,8.9,5.3,8.8,5.3
		c-0.2,0-0.7-0.1-1.3-0.4C6.8,4.7,6.2,4.5,5.8,4.5C5,4.5,4.3,4.8,3.7,5.2C3,5.6,2.5,6.1,2.1,6.8C1.6,7.7,1.3,8.8,1.3,10
		c0,1.1,0.2,2.2,0.6,3.3c0.3,1.1,0.8,2,1.3,2.8c0.5,0.7,0.9,1.2,1.3,1.6c0.5,0.5,1,0.8,1.6,0.7c0.3,0,0.8-0.1,1.4-0.4
		c0.5-0.2,1.1-0.3,1.6-0.3c0.5,0,1,0.1,1.5,0.3c0.6,0.2,1.1,0.4,1.4,0.4c0.5,0,1.1-0.3,1.5-0.7c0.2-0.1,0.3-0.3,0.5-0.6
		c0.2-0.3,0.4-0.6,0.7-0.9c0.2-0.3,0.3-0.5,0.5-0.8c0.2-0.3,0.3-0.6,0.4-0.9c0.1-0.1,0.1-0.3,0.2-0.4c0-0.1,0.1-0.3,0.1-0.4
		c-0.4-0.2-0.8-0.5-1.2-0.8C13.9,11.9,13.5,11,13.5,9.8z"/>
	<path class="st0" d="M11.3,3c0.6-0.8,1-1.7,1-2.6c0-0.1,0-0.1,0-0.2c0-0.1,0-0.1,0-0.2c-0.4,0-0.9,0.2-1.4,0.4
		c-0.5,0.3-0.9,0.6-1.2,1c-0.6,0.8-1,1.6-1,2.5c0,0.1,0,0.1,0,0.2c0,0.1,0,0.1,0,0.2C9.6,4.4,10.5,4,11.3,3z"/>
</g>
</svg>
