<?xml version="1.0" encoding="utf-8"?>
<!-- Generator: Adobe Illustrator 27.0.0, SVG Export Plug-In . SVG Version: 6.00 Build 0)  -->
<svg version="1.1" id="Layer_1" xmlns:sketch="http://www.bohemiancoding.com/sketch/ns"
	 xmlns="http://www.w3.org/2000/svg" xmlns:xlink="http://www.w3.org/1999/xlink" x="0px" y="0px" viewBox="0 0 17.6 18.4"
	 style="enable-background:new 0 0 17.6 18.4;" xml:space="preserve">
<style type="text/css">
	.st0{fill-rule:evenodd;clip-rule:evenodd;fill:#4285F4;}
	.st1{fill-rule:evenodd;clip-rule:evenodd;fill:#34A853;}
	.st2{fill-rule:evenodd;clip-rule:evenodd;fill:#FBBC05;}
	.st3{fill-rule:evenodd;clip-rule:evenodd;fill:#EA4335;}
	.st4{fill:none;}
</style>
<g id="Google-Button" sketch:type="MSPage">
	<g id="_x39_-PATCH" transform="translate(-608.000000, -160.000000)" sketch:type="MSArtboardGroup">
	</g>
	<g id="btn_google_light_normal" transform="translate(-1.000000, -1.000000)" sketch:type="MSArtboardGroup">
		<g id="logo_googleg_48dp" transform="translate(15.000000, 15.000000)" sketch:type="MSLayerGroup">
			<path id="Shape" sketch:type="MSShapeGroup" class="st0" d="M3.4-4.6c0-0.6-0.1-1.3-0.2-1.8h-8.4v3.5h4.8c-0.2,1.1-0.8,2-1.8,2.7
				v2.3h3C2.5,0.5,3.4-1.9,3.4-4.6L3.4-4.6z"/>
			<path id="Shape_00000106134889276866927610000001881782619196613008_" sketch:type="MSShapeGroup" class="st1" d="M-5.2,4.2
				c2.4,0,4.5-0.8,6-2.2l-3-2.2C-3,0.3-4,0.7-5.2,0.7c-2.3,0-4.3-1.6-5-3.7h-3v2.2C-11.8,2.2-8.7,4.2-5.2,4.2L-5.2,4.2z"/>
			<path id="Shape_00000054952627617647285510000018168110079574181286_" sketch:type="MSShapeGroup" class="st2" d="M-10.2-3.1
				c-0.2-0.5-0.3-1.1-0.3-1.7s0.1-1.2,0.3-1.7v-2.3h-3c-0.7,1.2-1,2.5-1,4s0.3,2.8,1,4L-10.2-3.1L-10.2-3.1z"/>
			<path id="Shape_00000101073662928623640780000004929403081772591289_" sketch:type="MSShapeGroup" class="st3" d="M-5.2-10.2
				c1.3,0,2.5,0.5,3.4,1.3l2.6-2.6c-1.5-1.4-3.6-2.3-6-2.3c-3.5,0-6.6,2-8,5l3,2.3C-9.5-8.6-7.5-10.2-5.2-10.2L-5.2-10.2z"/>
			<path id="Shape_00000171703271140933646430000000711939926235104174_" sketch:type="MSShapeGroup" class="st4" d="M-14.2-13.8h18
				v18h-18V-13.8z"/>
		</g>
		<g id="handles_square" sketch:type="MSLayerGroup">
		</g>
	</g>
</g>
</svg>
