<?xml version="1.0" encoding="UTF-8"?>
<svg id="Layer_1" data-name="Layer 1" xmlns="http://www.w3.org/2000/svg" viewBox="0 0 179.48 34.25">
  <defs>
    <style>
      .cls-1 {
        fill: #231f20;
      }
    </style>
  </defs>
  <g>
    <path class="cls-1" d="M25.23,21.3c0-7.8,4.85-12.95,12.65-12.95s12.5,5.1,12.5,12.95-4.85,12.95-12.5,12.95-12.65-5.3-12.65-12.95Zm18.6,0c0-5-2-7.45-5.95-7.45s-5.95,2.45-5.95,7.45,2,7.5,5.95,7.5,5.95-2.5,5.95-7.5Z"/>
    <path class="cls-1" d="M68.78,33.6v-3.45c-1.7,2.8-4.25,4.1-7.65,4.1-4.9,0-8.35-3.65-8.35-9.05V9h6.5v15.2c0,3.1,1.4,4.6,4.15,4.6,3.3,0,5.05-2.35,5.05-5.6V9h6.45v24.6h-6.15Z"/>
    <path class="cls-1" d="M77.83,33.6V0h6.4V12.2c1.85-2.6,4.25-3.85,7.3-3.85,6.35,0,10.1,5.25,10.1,12.7,0,8.3-4.45,13.2-10.65,13.2-3,0-5.3-1.15-6.85-3.65l-.05,3h-6.25Zm17.2-12.1c0-5.05-1.8-7.6-5.6-7.6-3.6,0-5.45,2.65-5.45,8,0,4.15,2.4,7.05,5.5,7.05s5.55-3.05,5.55-7.45Z"/>
    <path class="cls-1" d="M104.08,33.6V0h6.4V12.2c1.85-2.6,4.25-3.85,7.3-3.85,6.35,0,10.1,5.25,10.1,12.7,0,8.3-4.45,13.2-10.65,13.2-3,0-5.3-1.15-6.85-3.65l-.05,3h-6.25Zm17.2-12.1c0-5.05-1.8-7.6-5.6-7.6-3.6,0-5.45,2.65-5.45,8,0,4.15,2.4,7.05,5.5,7.05s5.55-3.05,5.55-7.45Z"/>
    <path class="cls-1" d="M129.78,21.3c0-7.8,4.85-12.95,12.65-12.95s12.5,5.1,12.5,12.95-4.85,12.95-12.5,12.95-12.65-5.3-12.65-12.95Zm18.6,0c0-5-2-7.45-5.95-7.45s-5.95,2.45-5.95,7.45,2,7.5,5.95,7.5,5.95-2.5,5.95-7.5Z"/>
    <path class="cls-1" d="M173.33,33.6v-3.45c-1.7,2.8-4.25,4.1-7.65,4.1-4.9,0-8.35-3.65-8.35-9.05V9h6.5v15.2c0,3.1,1.4,4.6,4.15,4.6,3.3,0,5.05-2.35,5.05-5.6V9h6.45v24.6h-6.15Z"/>
  </g>
  <path class="cls-1" d="M13.09,13.6h10v-4.6H9.49V2.35H3.09v6.65H0v4.6H3.09v10.75c0,5.3,2.85,9.9,10.05,9.9s9.95-4.65,9.95-9.85v-7h-6.05v6.4c0,3.05-1.2,4.8-3.8,4.8s-3.75-1.8-3.75-4.9V13.6h3.6Z"/>
</svg>