<?xml version="1.0" encoding="utf-8"?>
<!-- Generator: Adobe Illustrator 27.0.0, SVG Export Plug-In . SVG Version: 6.00 Build 0)  -->
<svg version="1.1" id="Layer_1" xmlns="http://www.w3.org/2000/svg" xmlns:xlink="http://www.w3.org/1999/xlink" x="0px" y="0px"
	 viewBox="0 0 20 19.5" style="enable-background:new 0 0 20 19.5;" xml:space="preserve">
<style type="text/css">
	.st0{fill:#EAEAEA;stroke:#252525;stroke-width:0.4;stroke-miterlimit:10;}
	.st1{fill:#EF6466;stroke:#000000;stroke-width:0.4;stroke-miterlimit:10;}
	.st2{fill:none;stroke:#252525;stroke-width:0.4;stroke-miterlimit:10;}
	.st3{fill:#EF6466;stroke:#252525;stroke-width:0.4;stroke-miterlimit:10;}
	.st4{fill:#AED6F4;stroke:#252525;stroke-width:0.4;stroke-miterlimit:10;}
	.st5{fill:#AED6F4;stroke:#252525;stroke-width:0.3;stroke-miterlimit:10;}
	.st6{fill:none;stroke:#EF6466;stroke-width:0.2;stroke-miterlimit:10;}
</style>
<polyline class="st0" points="18.6,7.8 18.6,17 1.4,17 1.4,7.8 "/>
<rect x="3.4" y="9.9" class="st1" width="2.9" height="6"/>
<circle class="st2" cx="5.6" cy="13.1" r="0.2"/>
<g>
	<path class="st3" d="M2.1,0.6l-1.4,5c0,0.9,0.7,1.6,1.6,1.6s1.6-0.7,1.6-1.6l0.9-5H2.1z"/>
	<path class="st4" d="M4.7,0.6l-0.9,5c0,0.9,0.7,1.6,1.6,1.6s1.6-0.7,1.6-1.6l0.5-5H4.7z"/>
	<path class="st3" d="M7.4,0.6l-0.5,5c0,0.9,0.7,1.6,1.6,1.6S10,6.4,10,5.6v-5H7.4z"/>
	<path class="st4" d="M10,0.6v5c0,0.9,0.7,1.6,1.6,1.6s1.6-0.7,1.6-1.6l-0.5-5H10z"/>
	<path class="st3" d="M12.6,0.6l0.5,5c0,0.9,0.7,1.6,1.6,1.6s1.6-0.7,1.6-1.6l-0.9-5H12.6z"/>
	<g>
		<path class="st4" d="M15.3,0.6l0.9,5c0,0.9,0.7,1.6,1.6,1.6s1.6-0.7,1.6-1.6l-1.4-5H15.3z"/>
	</g>
</g>
<rect x="9.7" y="9.8" class="st5" width="7.6" height="3.8"/>
<line class="st6" x1="15.7" y1="10.6" x2="14.6" y2="11.4"/>
<line class="st6" x1="16.5" y1="10.7" x2="14.8" y2="12"/>
<line class="st6" x1="16.6" y1="11.4" x2="15.4" y2="12.2"/>
</svg>
