<?xml version="1.0" encoding="utf-8"?>
<!-- Generator: Adobe Illustrator 27.0.0, SVG Export Plug-In . SVG Version: 6.00 Build 0)  -->
<svg version="1.1" id="Layer_1" xmlns="http://www.w3.org/2000/svg" xmlns:xlink="http://www.w3.org/1999/xlink" x="0px" y="0px"
	 viewBox="0 0 25 25" style="enable-background:new 0 0 25 25;" xml:space="preserve">
<style type="text/css">
	.st0{fill:none;stroke:#231F20;stroke-miterlimit:10;}
	.st1{fill:#73EFA5;stroke:#231F20;stroke-width:0.7;stroke-miterlimit:10;}
	.st2{fill:#FC658C;stroke:#231F20;stroke-width:0.7;stroke-miterlimit:10;}
	.st3{fill:#8EA6F4;stroke:#231F20;stroke-width:0.7;stroke-miterlimit:10;}
	.st4{fill:#EF9D3C;stroke:#231F20;stroke-width:0.7;stroke-miterlimit:10;}
	.st5{fill:#F4A6AA;stroke:#231F20;stroke-miterlimit:10;}
	.st6{fill:#BDF2C1;stroke:#231F20;stroke-miterlimit:10;}
	.st7{fill:#F4E8B5;stroke:#231F20;stroke-miterlimit:10;}
</style>
<path class="st0" d="M-337.8-205.2"/>
<g>
	<path class="st0" d="M1.5,13.1c0,0-0.3,8.4,8.8,8.8c0,0,2.4,0,1.4-2.3s1.2-2.9,1.2-2.9s5.9-0.8,5.9-3.5c-0.1-4.3-2.7-7.5-8.1-8.2
		S1.8,8.2,1.5,13.1z"/>
	<circle class="st1" cx="8.1" cy="18.4" r="1.4"/>
	<circle class="st2" cx="5.1" cy="14.8" r="1.4"/>
	<circle class="st3" cx="6.1" cy="10.2" r="1.4"/>
	<circle class="st4" cx="10.4" cy="7.9" r="1.4"/>
	<g>
		<path class="st5" d="M13.5,9.4c-1.4,1.5-2.1,2.6-1.7,3.1c0.4,0.5,1.8,0,3.7-1.2C15.1,10.3,14.3,9.7,13.5,9.4z"/>
		<path class="st6" d="M16.6,6.6c-1.2,1-2.3,1.9-3.1,2.8c0.8,0.3,1.5,0.9,2,1.9c1-0.6,2-1.3,3.1-2.2C21.8,6.6,24,4,23.4,3.3
			C22.9,2.6,19.8,4.1,16.6,6.6z"/>
	</g>
	<path class="st7" d="M10.6,11.6c0.3-0.8,1.6-0.5,2.1,0.1c0.6,0.6,0.6,1.6-0.1,2.1C11,15,8.6,13.3,8.6,13.3S10,12.9,10.6,11.6z"/>
</g>
</svg>
